<?xml version="1.0" encoding="utf-8"?>
<!-- Generator: Adobe Illustrator 23.0.0, SVG Export Plug-In . SVG Version: 6.00 Build 0)  -->
<svg version="1.1" id="Layer_1" xmlns="http://www.w3.org/2000/svg" xmlns:xlink="http://www.w3.org/1999/xlink" x="0px" y="0px"
	 viewBox="0 0 500 478.91" style="enable-background:new 0 0 500 478.91;" xml:space="preserve">
<style type="text/css">
	.st0{fill:#7046B2;}
</style>
<g>
	<path class="st0" d="M376.64,158.88c-9.98-2.93-18.47-5.02-26.61-8.06c-2.18-0.82-4.33-4.38-4.7-6.94
		c-3.3-22.59-11.06-43.51-22.84-62.95c-11.03-18.21-25.17-33.21-45.25-41.61c-18.59-7.78-37.35-6.09-56.3-1.13
		c-34.67,9.07-57.18,31.66-72.15,63.23c-13.98,29.48-18.45,60.55-17.77,92.88c0.83,39.16,11.2,75.48,29.84,109.7
		c2.3,4.22,4.56,6.36,9.96,6.27c18.14-0.29,33.18,14.16,34.47,31.23c1.65,21.8-13.76,35.73-29.73,37.59
		c-19.54,2.28-35.86-9.83-38.38-29.1c-0.82-6.26,1.57-12.91,2.22-19.41c0.27-2.66,0.73-5.92-0.47-8.02
		c-20-35.24-33.2-72.86-36.38-113.23c-3.91-49.47,4.06-96.99,31.37-139.48c22.35-34.77,53.84-57.29,95.28-63.47
		c31.89-4.75,60.8,3.86,86.04,23.85c31.39,24.86,48.03,58.51,56.23,96.86C373.65,137.21,374.83,147.53,376.64,158.88z"/>
	<path class="st0" d="M73.52,227.39c2.82,10.31,5.44,19.05,7.42,27.93c0.37,1.68-1.34,4.48-2.9,5.84
		c-21.94,19.14-39.34,41.31-47.24,69.9c-14.9,53.97,22.58,107.99,77.94,114.42c49.63,5.76,92.66-9.86,133.09-36.53
		c30.3-19.99,54.99-45.09,72.65-76.97c2.36-4.26,2.81-7.27-0.45-11.58c-9.24-12.25-8.78-28.95,0.32-40.7
		c9.6-12.4,25.46-17.1,39.77-11.79c14.29,5.31,23.17,19.07,22.45,34.81c-0.66,14.53-11.16,27.09-25.53,31.4
		c-2.96,0.89-6.41,3.24-7.8,5.88c-37.9,72.01-97.26,115.17-176.44,131.78c-35.71,7.49-70.44,4.79-103.54-11.3
		c-35-17.02-54.56-45.54-59.92-83.66c-7.5-53.32,12.31-96.64,50.43-132.75C59.78,238.39,66.41,233.37,73.52,227.39z"/>
	<path class="st0" d="M284.2,457.77c8.5-6.84,16.16-13.24,24.15-19.21c1.56-1.16,4.7-1.48,6.57-0.76
		c21.48,8.27,43.59,12.42,66.64,11.17c55.01-2.98,89.85-49.83,88.39-92.4c-0.82-24-10.35-45.29-23.35-65.05
		c-24.21-36.77-59.06-59.96-99.05-76.1c-29.28-11.82-59.9-17.09-91.54-16.57c-5.58,0.09-8.96,1.64-12.04,6.58
		c-7.8,12.5-22.5,18.25-37.11,14.48c-13.9-3.59-23.01-12.9-25.45-27.11c-2.49-14.51,2.24-26.78,14.8-35.31
		c15-10.19,35.58-6.67,46.79,8.4c2.88,3.87,5.8,5.11,10.39,5.01c52-1.11,100.93,10.27,145.52,37.56
		c36.44,22.3,66.51,51.14,84.72,90.39c15.72,33.9,20.5,69.31,5.58,104.72c-13.42,31.86-39.43,51.16-70.89,63.06
		c-42.55,16.09-84.62,11.62-125.99-5.25C289.84,460.35,287.41,459.19,284.2,457.77z"/>
</g>
</svg>
