<?xml version="1.0" encoding="utf-8"?>
<!-- Generator: Adobe Illustrator 23.0.0, SVG Export Plug-In . SVG Version: 6.00 Build 0)  -->
<svg version="1.1" id="Layer_1" xmlns="http://www.w3.org/2000/svg" xmlns:xlink="http://www.w3.org/1999/xlink" x="0px" y="0px"
	 viewBox="0 0 500 375.81" style="enable-background:new 0 0 500 375.81;" xml:space="preserve">
<style type="text/css">
	.st0{fill:#D56EA3;}
	.st1{display:none;}
	.st2{display:inline;fill:none;stroke:#000000;stroke-width:0.3;}
</style>
<g>
	<path class="st0" d="M490.01,241.28c-12.93-16.41-30.52-23.68-50.68-25.38c-17.65-1.49-34.74,1.32-50.97,8.65
		c-1.44,0.65-2.92,1.7-4.15-0.39c-7.25-12.37-12.01-25.36-10.25-40.05c0.77-6.45,2.93-12.52,4.93-18.64
		c1.68-5.15,0.45-7.54-4.8-8.49c-6.86-1.24-13.69-0.55-20.42,1.16c-2.91,0.74-4.58,2.57-5.57,5.56c-2.16,6.53-2.97,13.42-5.82,19.76
		c-7.1,15.8-15.88,30.68-24.59,45.6c-0.95,1.64-1.44,3.77-3.5,4.66c-6.41-10.8-8.77-21.96-7.71-33.84c0.6-6.81,2.8-13.14,4.86-19.53
		c1.72-5.31,0.46-7.46-5.07-8.6c-6.78-1.4-13.4-0.29-19.98,1.22c-2.93,0.68-4.74,2.45-5.48,5.57c-1.12,4.69-2.19,9.47-4.08,13.88
		c-13.65,31.74-27.23,63.51-42.62,94.47c-0.94,1.89-1.76,3.95-4.14,5.39c-1.33-5.89-0.43-11.29,0.65-16.69
		c3.06-15.22,7.46-30.1,11.31-45.12c1.74-6.79-1.51-10.94-8.56-11.43c-2.55-0.18-4.59,1.33-7.32,1.85
		c0.89-4.91,0.95-9.44,0.62-13.94c-0.99-13.21-9.62-19.55-22.37-16.06c-15.05,4.12-25.99,14.19-35.68,25.84
		c-1.4,1.69-2.67,3.41-4.7,4.51c-14.92,8.11-29.83,16.25-44.67,24.5c-2.21,1.23-3.52,1.04-5.23-0.81
		c-6.49-7-13.93-12.94-21.43-18.82c-13.12-10.29-26.8-19.93-38.32-32.14c-18.63-19.73-21.53-41.9-8.54-65.62
		c7.59-13.87,18.46-24.88,30.61-34.7c22.71-18.35,47.93-32.63,74.61-44.2c29.43-12.77,59.95-20.9,92.49-18.3
		c10.44,0.84,20.55,3.05,29.81,8.24c7.84,4.39,13,10.64,14.4,19.81c1.87,12.28-1.98,23.2-7.95,33.49
		c-11.59,20-28.77,34.11-48.86,44.87c-18.95,10.15-39.23,16.1-60.65,17.78c-18.36,1.44-35.72-0.91-49.36-15.14
		c-1.12-1.17-2.39-2.54-4.15-1.44c-1.75,1.09-1.65,2.91-1.14,4.73c1.12,4.04,3.21,7.52,6.03,10.58c7.35,8,16.41,13.24,26.86,15.86
		c12.91,3.24,26.04,3.33,39.25,2.03c24.02-2.38,47.07-8.21,67.98-20.48c25.67-15.05,44.93-35.99,55.05-64.41
		c4.8-13.49,6.15-27.42,2.22-41.41c-5.62-20-20.57-30.76-38.89-37.44C244.28-2.61,213.81-1.9,183.63,5.49
		c-43.58,10.68-83.34,30.1-119.7,56.28C43.34,76.6,25.28,94.05,12.15,116.08c-6.21,10.41-11.03,21.45-12.01,33.63
		c-1.16,14.39,5.2,26.48,13.27,37.72c9.76,13.59,22.38,24.28,35.57,34.36c15.01,11.47,31.19,21.3,46.08,32.95
		c2.58,2.02,2.52,3.03-0.28,4.47c-5.85,3.03-11.73,6.02-17.43,9.32c-17.53,10.16-34.68,20.97-47.77,36.78
		c-12.47,15.06-17.24,32.15-10.28,51.17c2.79,7.63,7.58,14.12,15.97,16.35c11.21,2.98,22.61,3.12,33.89,0.27
		c51.33-12.97,74.17-66.9,57.6-110.29c-0.44-1.16-1.53-2.32,0.26-3.37c8.5-5,16.88-10.19,26.6-15.06
		c-2.99,8.91-4.54,17.05-5.65,25.3c-2.33,17.23,0.66,33.38,8.74,48.81c7.8,14.9,26.06,13.84,33.24,1.04
		c6.02-10.75,11.45-21.74,15.78-33.27c0.45-0.44,0.19-1.97,1.55-1c-0.11,0.87-0.27,1.74-0.34,2.61c-0.73,9.37-1.43,18.78,2.79,27.6
		c3.41,7.12,10.65,9.02,17.27,4.82c5.87-3.73,9.92-9.15,13.23-15.03c12.85-22.86,24.97-46.09,35.06-70.33
		c2.72-6.53,5.53-13.03,8.3-19.55c2.98,13.99,8.07,26.83,14.52,39.15c1.09,2.09,0.41,3.54-0.73,5.21
		c-5.04,7.4-10.88,14.16-16.59,21.01c-5.43,6.52-11.27,12.74-15.94,19.85c-4.79,7.29-2.08,13.55,6.42,14.62
		c10.96,1.39,21.21-1.71,30.95-6.36c13.83-6.6,23.97-16.16,25.09-32.69c0.56-8.27-1.54-15.93-4.44-23.48
		c-0.58-1.5-1.26-2.78-0.08-4.47c7.9-11.28,24.73-40.47,25.99-43.28c0.78-1.74,1.85-4.08,2.08-4.07c0.39,0.01,4.21,9.68,6.44,16.89
		c2.45,7.93,5.59,16.3,6.55,18.06c1.25,2.29,0.74,3.73-1.15,5.23c-3.91,3.1-7.29,6.77-10.54,10.54
		c-8.07,9.34-14.38,19.53-16.06,32.11c-1.38,10.36,5.84,17.65,15.72,15.17c8.12-2.04,15.92-5.1,22.8-10.03
		c17.29-12.4,25.05-25.26,16.98-47.41c-1.24-3.41,1.22-3.7,3.19-4.39c13.67-4.78,27.81-5.58,42.06-4.22
		c10.98,1.05,21.62,3.62,31.39,9.12c5.99,3.37,11.12,7.73,14.97,13.32c10.83,15.74,7.89,30.21-8.05,41.14
		c-1.48,1.02-3.97,1.8-2.76,4.21c1.1,2.17,3.34,1.33,5.11,0.67c7.67-2.86,13.86-7.71,17.98-14.76
		C503.2,273.3,500.82,254.99,490.01,241.28z M112.53,283.99c0.13,27.77-17.42,52.46-42.63,61.1c-1.24,0.42-2.54,0.67-3.82,0.94
		c-14.74,3.08-21.48-3.64-18.28-18.32c3.05-13.97,11.51-24.4,22.29-33.18c11.45-9.32,23.69-17.52,36.38-25.08
		c2.69-1.6,3.89-1.87,4.55,1.76C111.86,275.83,112.68,280.41,112.53,283.99z M213.14,215.47c-1.77,10.12-4.9,19.87-8.44,29.46
		c-5.51,14.94-10.84,29.97-17.8,44.34c-1.4,2.9-2.93,5.75-5.25,8.05c-2.17,2.15-4.08,1.95-5.62-0.79c-1.91-3.4-2.59-7.15-2.89-10.94
		c-1.95-25.19,6.16-47.19,21.47-66.83c3.82-4.9,10.83-9.12,14.5-9.22C212.69,209.45,213.89,211.16,213.14,215.47z M281.39,299.7
		c8.62-9.8,16.93-18.52,24.16-28.5C307.91,280.91,293.61,298.19,281.39,299.7z M355.25,282.66c-2.42,0.48-2.4-0.78-2.25-2.42
		c0.37-4.17,2.35-7.81,3.93-11.57c3.02-7.19,8.92-14.91,15.26-19.94C377.62,261.45,368.13,280.1,355.25,282.66z"/>
</g>
<g class="st1">
	<line class="st2" x1="-33.09" y1="-97.23" x2="-33.09" y2="-61.23"/>
	<line class="st2" x1="-87.09" y1="-43.23" x2="-51.09" y2="-43.23"/>
	<line class="st2" x1="-87.09" y1="464.98" x2="-51.09" y2="464.98"/>
	<line class="st2" x1="-33.09" y1="518.98" x2="-33.09" y2="482.98"/>
	<line class="st2" x1="528.45" y1="-97.23" x2="528.45" y2="-61.23"/>
	<line class="st2" x1="582.45" y1="-43.23" x2="546.45" y2="-43.23"/>
	<line class="st2" x1="582.45" y1="464.98" x2="546.45" y2="464.98"/>
	<line class="st2" x1="528.45" y1="518.98" x2="528.45" y2="482.98"/>
</g>
</svg>
